<svg xmlns="http://www.w3.org/2000/svg" viewBox="0 0 410.624 424.451">
  <defs>
    <style>
      .a {
        fill: #6fffe9;
      }
    </style>
  </defs>
  <title>shopping-cart</title>
  <g>
    <circle class="a" cx="163.328" cy="374.274" r="50.176"/>
    <path class="a" d="M316.673,324.1h0a50.176,50.176,0,1,0,50.176,50.176A50.177,50.177,0,0,0,316.673,324.1Z" transform="translate(-6.913 0.001)"/>
    <path class="a" d="M402.177,272.9H140.545l-5.12-29.7h215.04a15.36,15.36,0,0,0,14.336-9.728L416,104.449a15.36,15.36,0,0,0-14.336-20.992H108.8L96.513,12.8A15.36,15.36,0,0,0,81.153,0H22.273a15.36,15.36,0,0,0,0,30.72h46.08l44.032,260.1a15.36,15.36,0,0,0,15.36,12.8H402.177a15.36,15.36,0,0,0,0-30.72Z" transform="translate(-6.913 0.001)"/>
  </g>
</svg>
